<svg width="209" height="62" viewBox="0 0 209 62" fill="none" xmlns="http://www.w3.org/2000/svg">
<line x1="27" y1="0.5" x2="177" y2="0.5" stroke="black"/>
<path d="M25.353 40.838V41H17.847V40.838H18.711C19.413 40.838 19.89 40.73 20.142 40.514C20.412 40.298 20.547 39.884 20.547 39.272V22.64L12.582 37.787H12.123L4.05 22.505V34.223C4.05 37.679 4.365 39.884 4.995 40.838H6.561V41H1.323V40.838H2.889C3.519 39.902 3.834 37.418 3.834 33.386V23.072C3.834 22.118 3.429 21.641 2.619 21.641H1.242V21.479H5.832L13.365 35.735L20.871 21.479H25.353V21.641H24.462C23.886 21.641 23.463 21.704 23.193 21.83C22.833 21.992 22.653 22.433 22.653 23.153V39.272C22.653 39.884 22.77 40.298 23.004 40.514C23.238 40.73 23.715 40.838 24.435 40.838H25.353ZM50.2835 40.838V41H43.3985V40.838H44.2625C45.1985 40.838 45.6665 40.523 45.6665 39.893C45.6665 39.641 44.9285 37.355 43.4525 33.035H36.4865L35.5415 35.519C34.7495 37.697 34.3535 39.011 34.3535 39.461C34.3535 40.199 34.6865 40.658 35.3525 40.838H36.4865V41H31.4645V40.838H32.2205C32.7965 40.478 33.3725 39.731 33.9485 38.597C34.5245 37.481 35.4245 35.285 36.6485 32.009L40.5095 21.479H41.0765L47.6375 39.002C47.8715 39.65 48.1505 40.118 48.4745 40.406C48.7985 40.694 49.2665 40.838 49.8785 40.838H50.2835ZM36.5405 32.873H43.3445L39.9425 23.531L36.5405 32.873ZM64.2767 40.838C65.9687 40.838 67.5887 40.658 69.1367 40.298C70.3787 40.01 71.2517 39.272 71.7557 38.084L72.1607 36.518H72.3227L71.5127 41H56.3927V40.838H57.2837C58.5077 40.838 59.1197 40.316 59.1197 39.272V23.207C59.1197 22.613 58.9847 22.208 58.7147 21.992C58.4627 21.758 57.9857 21.641 57.2837 21.641H56.4197V21.479H63.9257V21.641H63.0077C62.3057 21.641 61.8287 21.749 61.5767 21.965C61.3427 22.181 61.2257 22.595 61.2257 23.207V39.272C61.2257 39.866 61.4147 40.271 61.7927 40.487C62.1527 40.721 62.9807 40.838 64.2767 40.838ZM95.8597 30.767C95.8777 29.597 95.6887 28.382 95.2927 27.122C94.9147 25.862 94.3117 24.746 93.4837 23.774C92.8717 23.09 92.0707 22.541 91.0807 22.127C90.1087 21.713 89.0287 21.506 87.8407 21.506C86.0047 21.506 84.4657 21.776 83.2237 22.316V40.055C84.3217 40.667 85.8337 40.973 87.7597 40.973C89.1457 40.973 90.3607 40.703 91.4047 40.163C92.4667 39.623 93.3127 38.876 93.9427 37.922C94.5907 36.968 95.0677 35.888 95.3737 34.682C95.6977 33.476 95.8597 32.171 95.8597 30.767ZM81.1177 39.272V23.207C81.1177 22.631 80.9737 22.226 80.6857 21.992C80.4157 21.758 79.9477 21.641 79.2817 21.641H78.4177V21.479H82.5217C83.0257 21.479 83.9167 21.452 85.1947 21.398C86.8867 21.362 87.7687 21.344 87.8407 21.344C89.5327 21.344 91.0627 21.587 92.4307 22.073C93.7987 22.541 94.8517 23.144 95.5897 23.882C96.2737 24.566 96.8317 25.367 97.2637 26.285C97.8757 27.653 98.1817 29.066 98.1817 30.524C98.1817 32.36 97.8217 34.106 97.1017 35.762C96.6337 36.806 96.0577 37.697 95.3737 38.435C94.6177 39.227 93.5827 39.875 92.2687 40.379C90.9547 40.883 89.4787 41.135 87.8407 41.135C87.7507 41.135 86.9137 41.117 85.3297 41.081C84.1417 41.027 83.3677 41 83.0077 41H78.4177V40.838H79.2817C80.0197 40.838 80.5057 40.73 80.7397 40.514C80.9917 40.298 81.1177 39.884 81.1177 39.272ZM113.301 40.838V41H105.795V40.838H106.659C107.361 40.838 107.838 40.73 108.09 40.514C108.36 40.28 108.495 39.866 108.495 39.272V23.207C108.495 22.595 108.36 22.181 108.09 21.965C107.838 21.749 107.361 21.641 106.659 21.641H105.795V21.479H113.301V21.641H112.383C111.681 21.641 111.204 21.758 110.952 21.992C110.718 22.208 110.601 22.613 110.601 23.207V39.272C110.601 39.866 110.718 40.28 110.952 40.514C111.186 40.73 111.663 40.838 112.383 40.838H113.301ZM139.521 21.479V21.641H138.684C138.09 22.037 137.352 23.216 136.47 25.178C136.344 25.466 136.038 26.222 135.552 27.446C134.706 29.498 134.265 30.56 134.229 30.632L129.747 41.378H129.504L121.89 23.369C121.872 23.333 121.845 23.27 121.809 23.18C121.773 23.072 121.746 23.009 121.728 22.991C121.728 22.955 121.71 22.901 121.674 22.829C121.638 22.757 121.611 22.712 121.593 22.694C121.575 22.658 121.548 22.613 121.512 22.559C121.494 22.505 121.467 22.469 121.431 22.451C121.413 22.415 121.377 22.379 121.323 22.343C121.287 22.289 121.242 22.244 121.188 22.208C121.152 22.172 121.098 22.136 121.026 22.1C120.972 22.046 120.909 22.001 120.837 21.965C120.495 21.785 120.018 21.677 119.406 21.641V21.479H126.102V21.641H125.184C124.374 21.641 123.969 21.974 123.969 22.64C123.969 22.838 124.05 23.153 124.212 23.585L130.557 38.84L134.985 28.121C136.083 25.421 136.632 23.639 136.632 22.775C136.632 22.019 136.272 21.641 135.552 21.641H134.418V21.479H139.521ZM165.175 21.479V21.641H163.609C163.303 22.163 163.078 22.856 162.934 23.72C162.808 24.512 162.718 25.862 162.664 27.77V32.441C162.664 35.177 162.133 37.337 161.071 38.921C160.027 40.487 158.227 41.27 155.671 41.27C153.673 41.27 152.035 40.91 150.757 40.19C149.803 39.668 149.065 38.849 148.543 37.733C148.165 36.923 147.976 36.068 147.976 35.168C147.958 35.006 147.949 34.691 147.949 34.223V23.207C147.949 22.649 147.796 22.253 147.49 22.019C147.202 21.767 146.743 21.641 146.113 21.641H145.195V21.479H152.809V21.641H151.837C150.649 21.641 150.055 22.163 150.055 23.207V34.682C150.055 35.69 150.19 36.59 150.46 37.382C150.748 38.156 151.09 38.768 151.486 39.218C151.9 39.65 152.377 40.01 152.917 40.298C153.457 40.586 153.952 40.775 154.402 40.865C154.852 40.955 155.284 41 155.698 41C158.308 41 160.117 40.145 161.125 38.435C162.007 36.959 162.448 34.961 162.448 32.441V27.527C162.448 26.051 162.349 24.764 162.151 23.666C161.953 22.568 161.737 21.893 161.503 21.641H159.937V21.479H165.175ZM172.081 21.641V21.479H186.742L187.012 25.421H186.85L186.553 23.234C186.247 22.712 185.482 22.316 184.258 22.046C182.98 21.776 181.54 21.641 179.938 21.641C178.732 21.641 177.913 21.74 177.481 21.938C177.085 22.118 176.887 22.55 176.887 23.234V30.686H178.507C181.261 30.686 182.917 30.389 183.475 29.795C183.709 29.543 183.826 29.228 183.826 28.85V28.31H183.988V33.224H183.826V32.603C183.826 32.405 183.808 32.252 183.772 32.144C183.754 32.018 183.655 31.865 183.475 31.685C183.295 31.487 183.025 31.343 182.665 31.253C182.323 31.145 181.792 31.055 181.072 30.983C180.37 30.893 179.515 30.848 178.507 30.848H176.887V39.272C176.887 39.866 177.031 40.28 177.319 40.514C177.607 40.73 178.066 40.838 178.696 40.838C181.432 40.838 183.466 40.658 184.798 40.298C186.13 39.938 187.003 39.218 187.417 38.138L187.714 36.977H187.876L187.147 41H172.081V40.838H172.945C173.683 40.838 174.169 40.73 174.403 40.514C174.655 40.298 174.781 39.884 174.781 39.272V23.207C174.781 22.595 174.637 22.181 174.349 21.965C174.079 21.749 173.611 21.641 172.945 21.641H172.081ZM207.488 36.167C207.488 37.607 206.93 38.831 205.814 39.839C204.698 40.865 203.168 41.378 201.224 41.378C199.082 41.378 197.012 40.865 195.014 39.839L195.041 41H194.879L194.474 35.87H194.636L194.771 37.004C195.275 38.138 196.112 39.128 197.282 39.974C198.434 40.802 199.739 41.216 201.197 41.216C202.673 41.216 203.798 40.865 204.572 40.163C205.346 39.443 205.733 38.507 205.733 37.355C205.733 35.339 204.032 33.44 200.63 31.658C199.046 30.794 197.795 29.966 196.877 29.174C195.743 28.202 195.176 27.014 195.176 25.61C195.176 24.206 195.644 23.099 196.58 22.289C197.516 21.461 198.965 21.047 200.927 21.047C202.763 21.047 204.536 21.524 206.246 22.478V21.479H206.408L206.651 26.069H206.489L206.408 25.124C206.138 24.08 205.571 23.162 204.707 22.37C203.861 21.596 202.628 21.209 201.008 21.209C199.532 21.209 198.479 21.479 197.849 22.019C197.237 22.541 196.931 23.306 196.931 24.314C196.931 25.61 197.435 26.69 198.443 27.554C199.037 28.058 199.532 28.427 199.928 28.661C200.432 28.985 201.089 29.363 201.899 29.795C202.727 30.245 203.42 30.641 203.978 30.983C204.482 31.325 205.049 31.757 205.679 32.279C206.885 33.359 207.488 34.655 207.488 36.167Z" fill="black"/>
<line x1="27" y1="61.5" x2="177" y2="61.5" stroke="black"/>
</svg>
