<svg width="47" height="12" viewBox="0 0 47 12" fill="none" xmlns="http://www.w3.org/2000/svg">
<path d="M0.2 0.32H2.15L5.585 9.365L8.9 0.32H10.865V11H9.53V2.09L6.185 11H4.955L1.55 2.09V11H0.2V0.32ZM22.1464 0.32V1.55H16.1614V4.895H21.7564V6.08H16.1614V9.77H22.2214V11H14.7514V0.32H22.1464ZM25.3613 0.32H26.9063L32.5463 8.99V0.32H33.9113V11H32.3213L26.7113 2.435V11H25.3613V0.32ZM37.6715 0.32H39.0965V7.055C39.0965 8.095 39.3215 8.855 39.7715 9.335C40.2215 9.815 40.9565 10.055 41.9765 10.055C43.0265 10.055 43.7665 9.81 44.1965 9.32C44.6365 8.83 44.8565 8.075 44.8565 7.055V0.32H46.2815V6.68C46.2815 8.24 45.9565 9.39 45.3065 10.13C44.6565 10.86 43.5465 11.225 41.9765 11.225C40.4565 11.225 39.3565 10.87 38.6765 10.16C38.0065 9.44 37.6715 8.33 37.6715 6.83V0.32Z" fill="#007D98"/>
</svg>
